<svg xmlns="http://www.w3.org/2000/svg" width="84.89" height="53.432" viewBox="0 0 84.89 53.432">
  <path id="Path_1158" data-name="Path 1158" d="M28.766,78.3c-.106-.084-.208-.171-.309-.26a1.012,1.012,0,0,1-1.044-.166c-1.863-2.149-3.539-4.5-5.371-6.695-1.764-1.84-3.623-3.592-5.565-5.277-.652-.566.419-1.081.943-.726a30.559,30.559,0,0,1,6.471,6.306l.193.213c-.515-.955-1-1.924-1.475-2.9a112.8,112.8,0,0,1-5.083-12.655c-1.422-4.162-2.583-8.4-3.919-12.585-1.666-5.225-3.546-10.378-5.4-15.54C5.018,19.115,1.889,10.153.015.866-.176-.077,1.536-.329,1.7.507c2.179,10.807,6.052,21.158,9.754,31.511,1.749,4.891,3.454,9.795,4.913,14.781,1.243,4.248,2.574,8.472,4.071,12.638,1.273,3.542,2.617,7.054,4.23,10.456.7,1.468,1.451,2.912,2.274,4.314a117.036,117.036,0,0,1-1.206-13.191c-.021-.776,1.517-.78,1.518,0,.005,5.3.846,10.532,1.363,15.793.258.4.507.807.73,1.229C29.515,78.346,28.936,78.434,28.766,78.3Z" transform="matrix(-0.309, 0.951, -0.951, -0.309, 84.245, 24.85)" fill="#b71f24" stroke="#b71f24" stroke-width="1"/>
</svg>
