<svg xmlns="http://www.w3.org/2000/svg" width="43.066" height="43.047" viewBox="0 0 43.066 43.047">
  <g id="Group_27861" data-name="Group 27861" transform="translate(0)">
    <path id="Path_1184" data-name="Path 1184" d="M10.345,0h.673c.017.066.067.076.125.079a5,5,0,0,1,3.089,1.249c1.321,1.148,2.612,2.33,3.907,3.507.194.177.3.236.527.018a4.148,4.148,0,0,1,5.734,0c.2.192.3.179.5,0,1.164-1.072,2.34-2.13,3.513-3.192A6.665,6.665,0,0,1,30.3.434C30.807.218,31.362.186,31.877,0h.757c.018.066.068.073.127.078a5.538,5.538,0,0,1,5.095,6.316,5.828,5.828,0,0,1-.716,2c1.033,0,2.009-.008,2.984,0a2.806,2.806,0,0,1,2.939,2.969c.006,1.289,0,2.579,0,3.868a2.129,2.129,0,0,1-.046.5,1.455,1.455,0,0,1-1.625,1.086q-19.716,0-39.431.013A1.892,1.892,0,0,1,0,15.814V10.6c.229-.3.268-.688.5-.991A2.872,2.872,0,0,1,2.949,8.394c.972.008,1.945,0,2.97,0-.079-.156-.126-.252-.177-.347a5.048,5.048,0,0,1-.4-3.868A5.446,5.446,0,0,1,9.72.143C9.928.1,10.163.156,10.345,0Zm3.309,8.4c1.245,0,2.268,0,3.29,0,.124,0,.319.094.36-.093a.5.5,0,0,0-.107-.541C15.591,6.319,14,4.859,12.381,3.438a2.493,2.493,0,0,0-2.368-.49A2.754,2.754,0,0,0,7.972,5.771a2.7,2.7,0,0,0,2.379,2.569C11.525,8.471,12.7,8.351,13.654,8.4Zm15.667,0c.967-.041,2.16.079,3.347-.057a2.8,2.8,0,0,0,2.349-2.056,2.732,2.732,0,0,0-1.086-2.921,2.639,2.639,0,0,0-3.171.033c-1.09.814-2.033,1.8-3.053,2.7-.589.518-1.155,1.063-1.751,1.572a.556.556,0,0,0-.2.628c.065.206.291.1.44.1C27.165,8.4,28.132,8.4,29.321,8.4Z" transform="translate(0 0)" fill="#b71f24"/>
    <path id="Path_1185" data-name="Path 1185" d="M15.932,11.739c0,3.743,0,7.485.008,11.228,0,.35-.056.476-.448.475-4.135-.016-8.269-.008-12.4-.011a2.825,2.825,0,0,1-2.968-2.1,3.61,3.61,0,0,1-.11-1Q.007,10.388,0,.443C0,.1.085,0,.436,0Q7.962.02,15.489,0c.39,0,.453.114.452.469C15.927,4.226,15.932,7.983,15.932,11.739Z" transform="translate(2.796 19.605)" fill="#b71f24"/>
    <path id="Path_1186" data-name="Path 1186" d="M.009,11.69C.009,7.947.015,4.2,0,.462,0,.094.084,0,.459,0Q7.964.021,15.469,0c.346,0,.476.048.475.446q-.022,9.945-.011,19.89a2.831,2.831,0,0,1-2.128,2.99,3.588,3.588,0,0,1-.957.1c-4.135,0-8.269,0-12.4.009C.1,23.439,0,23.357,0,23,.014,19.231.009,15.46.009,11.69Z" transform="translate(24.327 19.606)" fill="#b71f24"/>
  </g>
</svg>
