<svg xmlns="http://www.w3.org/2000/svg" width="50.167" height="50.144" viewBox="0 0 50.167 50.144">
  <g id="Group_27861" data-name="Group 27861" transform="translate(0 0)">
    <path id="Path_1184" data-name="Path 1184" d="M12.051,0h.784c.02.077.078.089.146.092a5.829,5.829,0,0,1,3.6,1.455c1.539,1.337,3.043,2.714,4.551,4.085.226.206.346.274.615.021a4.832,4.832,0,0,1,6.68,0c.238.224.352.209.577,0,1.356-1.249,2.726-2.482,4.093-3.718A7.765,7.765,0,0,1,35.29.505c.6-.252,1.242-.289,1.843-.505h.882c.021.077.08.085.148.091A6.451,6.451,0,0,1,44.1,7.449a6.79,6.79,0,0,1-.834,2.331c1.2,0,2.34-.01,3.475,0a3.269,3.269,0,0,1,3.424,3.459c.007,1.5,0,3,0,4.505a2.479,2.479,0,0,1-.053.581,1.7,1.7,0,0,1-1.892,1.265q-22.966,0-45.932.015A2.2,2.2,0,0,1,0,18.422V12.346c.267-.347.312-.8.577-1.155A3.345,3.345,0,0,1,3.436,9.778c1.133.009,2.265,0,3.459,0-.092-.181-.147-.294-.206-.4A5.88,5.88,0,0,1,6.226,4.87a6.344,6.344,0,0,1,5.1-4.7C11.565.113,11.839.182,12.051,0Zm3.855,9.78c1.45,0,2.641,0,3.833-.005.144,0,.371.11.42-.108a.584.584,0,0,0-.125-.63C18.162,7.36,16.312,5.66,14.423,4.005a2.9,2.9,0,0,0-2.759-.571A3.209,3.209,0,0,0,9.287,6.722a3.142,3.142,0,0,0,2.772,2.992C13.425,9.868,14.8,9.728,15.906,9.78Zm18.25,0c1.126-.048,2.516.092,3.9-.067A3.258,3.258,0,0,0,40.79,7.319a3.183,3.183,0,0,0-1.265-3.4,3.074,3.074,0,0,0-3.694.039c-1.27.948-2.368,2.1-3.557,3.142-.687.6-1.345,1.238-2.04,1.831a.648.648,0,0,0-.229.732c.075.24.339.113.512.115C31.644,9.786,32.77,9.78,34.156,9.78Z" transform="translate(0 0)" fill="#fffeed"/>
    <path id="Path_1185" data-name="Path 1185" d="M18.559,13.675c0,4.36-.005,8.719.009,13.079,0,.408-.066.555-.522.553-4.816-.019-9.633-.009-14.449-.013A3.29,3.29,0,0,1,.139,24.847,4.206,4.206,0,0,1,.01,23.686Q.008,12.1,0,.516C0,.114.1,0,.508,0Q9.275.023,18.042,0c.454,0,.528.133.526.547C18.553,4.923,18.559,9.3,18.559,13.675Z" transform="translate(3.257 22.837)" fill="#fffeed"/>
    <path id="Path_1186" data-name="Path 1186" d="M.011,13.617C.011,9.258.017,4.9,0,.538,0,.109.1,0,.534,0Q9.277.024,18.02,0c.4,0,.554.056.553.519q-.025,11.585-.013,23.17a3.3,3.3,0,0,1-2.479,3.483,4.179,4.179,0,0,1-1.115.118c-4.816,0-9.633,0-14.449.01-.4,0-.518-.1-.516-.509C.017,22.4.011,18.009.011,13.617Z" transform="translate(28.337 22.839)" fill="#fffeed"/>
  </g>
</svg>
