<svg xmlns="http://www.w3.org/2000/svg" width="21.396" height="21.616" viewBox="0 0 21.396 21.616">
  <path id="Path_1156" data-name="Path 1156" d="M763.856,220.858a8.748,8.748,0,0,0-2.289-5.4c-1.514-1.528-3.695-2.15-6.671-1.9a.821.821,0,0,0-.5.223,12.284,12.284,0,0,0-8.751,6.876c-1.827,3.982-.948,8.158,2.236,10.64a8.87,8.87,0,0,0,5.47,1.825,9.932,9.932,0,0,0,5.642-1.776A11.82,11.82,0,0,0,763.856,220.858Z" transform="translate(-743.522 -212.509)" fill="none" stroke="#fffeed" stroke-width="2"/>
</svg>
