<svg xmlns="http://www.w3.org/2000/svg" xmlns:xlink="http://www.w3.org/1999/xlink" width="64.65" height="64.65" viewBox="0 0 64.65 64.65">
  <defs>
    <filter id="Path_150" x="0" y="0" width="64.65" height="64.65" filterUnits="userSpaceOnUse">
      <feOffset dy="3" input="SourceAlpha"/>
      <feGaussianBlur stdDeviation="3" result="blur"/>
      <feFlood flood-opacity="0.161"/>
      <feComposite operator="in" in2="blur"/>
      <feComposite in="SourceGraphic"/>
    </filter>
    <filter id="Path_151" x="12.989" y="12.958" width="38.702" height="38.702" filterUnits="userSpaceOnUse">
      <feOffset dy="3" input="SourceAlpha"/>
      <feGaussianBlur stdDeviation="3" result="blur-2"/>
      <feFlood flood-opacity="0.161"/>
      <feComposite operator="in" in2="blur-2"/>
      <feComposite in="SourceGraphic"/>
    </filter>
    <filter id="Path_152" x="33.829" y="9.822" width="21" height="21" filterUnits="userSpaceOnUse">
      <feOffset dy="3" input="SourceAlpha"/>
      <feGaussianBlur stdDeviation="3" result="blur-3"/>
      <feFlood flood-opacity="0.161"/>
      <feComposite operator="in" in2="blur-3"/>
      <feComposite in="SourceGraphic"/>
    </filter>
  </defs>
  <g id="IG" transform="translate(10.5 7.5)">
    <g transform="matrix(1, 0, 0, 1, -10.5, -7.5)" filter="url(#Path_150)">
      <path id="Path_150-2" data-name="Path 150" d="M13.912,3H35.737A10.912,10.912,0,0,1,46.65,13.912V35.737A10.912,10.912,0,0,1,35.737,46.65H13.912A10.912,10.912,0,0,1,3,35.737V13.912A10.912,10.912,0,0,1,13.912,3Z" transform="translate(7.5 4.5)" fill="none" stroke="#fffeed" stroke-linecap="round" stroke-linejoin="round" stroke-width="3"/>
    </g>
    <g transform="matrix(1, 0, 0, 1, -10.5, -7.5)" filter="url(#Path_151)">
      <path id="Path_151-2" data-name="Path 151" d="M29.43,19.385a8.73,8.73,0,1,1-7.355-7.355,8.73,8.73,0,0,1,7.355,7.355Z" transform="translate(11.62 8.57)" fill="none" stroke="#fffeed" stroke-linecap="round" stroke-linejoin="round" stroke-width="3"/>
    </g>
    <g transform="matrix(1, 0, 0, 1, -10.5, -7.5)" filter="url(#Path_152)">
      <path id="Path_152-2" data-name="Path 152" d="M26.25,9.75h0" transform="translate(18.08 7.57)" fill="none" stroke="#fffeed" stroke-linecap="round" stroke-linejoin="round" stroke-width="3"/>
    </g>
  </g>
</svg>
