<svg xmlns="http://www.w3.org/2000/svg" width="31.942" height="31.872" viewBox="0 0 31.942 31.872">
  <g id="rond1" transform="translate(0 31.872) rotate(-90)">
    <path id="Path_1178" data-name="Path 1178" d="M30.646,7.689C27.556,3.12,23.7-.12,17.864,0,12.571.246,8.486,3.374,4.814,6.7-1.08,12.05-1.428,18.062,3.036,24.7c3.069,4.563,10.6,8.085,15.1,7.068,6.379-1.439,12.5-8.4,13.282-15.217C31.77,13.556,32.533,10.482,30.646,7.689ZM17.527,28.066a7.079,7.079,0,0,1-3.657.251c-5.162-.807-7.935-4.441-9.615-8.9-1.5-3.992,1.292-6.93,3.407-9.893,2.069-2.9,5.483-3.993,8.176-6,2.017-1.5,5.462.071,7.889,1.586,2.806,1.751,4.651,4.268,4.4,7.906A16.81,16.81,0,0,1,17.527,28.066Z" transform="translate(0 0)" fill="#fffeed" fill-rule="evenodd"/>
  </g>
</svg>
