<svg xmlns="http://www.w3.org/2000/svg" width="52.848" height="52.596" viewBox="0 0 52.848 52.596">
  <g id="rond1" transform="translate(1 51.571) rotate(-90)">
    <path id="Path_1178" data-name="Path 1178" d="M48.755,12.233C43.84,4.963,37.709-.191,28.42.005,20,.392,13.5,5.368,7.659,10.665c-9.378,8.505-9.93,18.07-2.829,28.627,4.882,7.259,16.858,12.863,24.03,11.244,10.149-2.289,19.882-13.369,21.131-24.21C50.543,21.566,51.757,16.676,48.755,12.233ZM27.884,44.651a11.263,11.263,0,0,1-5.817.4c-8.212-1.284-12.624-7.065-15.3-14.164-2.39-6.351,2.055-11.025,5.42-15.739,3.292-4.616,8.723-6.353,13.007-9.538,3.209-2.385,8.69.113,12.551,2.524,4.464,2.786,7.4,6.79,7.006,12.577C44.432,31.27,37.451,41.18,27.884,44.651Z" transform="translate(0 0)" fill="#fff" stroke="#1f3d4a" stroke-width="2" fill-rule="evenodd"/>
    <path id="Path_1179" data-name="Path 1179" d="M32.541,8.164C29.26,3.312,25.168-.127,18.969,0,13.348.261,9.01,3.583,5.112,7.118c-6.259,5.676-6.628,12.061-1.888,19.107,3.259,4.845,11.251,8.585,16.038,7.5,6.773-1.528,13.27-8.922,14.1-16.158C33.734,14.393,34.544,11.13,32.541,8.164Z" transform="translate(8.432 8.45)" fill="#b71f24" fill-rule="evenodd"/>
  </g>
</svg>
