<svg xmlns="http://www.w3.org/2000/svg" xmlns:xlink="http://www.w3.org/1999/xlink" width="72.663" height="62.396" viewBox="0 0 72.663 62.396">
  <defs>
    <filter id="Icon_awesome-twitter" x="0" y="0" width="72.663" height="62.396" filterUnits="userSpaceOnUse">
      <feOffset dy="3" input="SourceAlpha"/>
      <feGaussianBlur stdDeviation="3" result="blur"/>
      <feFlood flood-opacity="0.161"/>
      <feComposite operator="in" in2="blur"/>
      <feComposite in="SourceGraphic"/>
    </filter>
  </defs>
  <g transform="matrix(1, 0, 0, 1, 0, 0)" filter="url(#Icon_awesome-twitter)">
    <path id="Icon_awesome-twitter-2" data-name="Icon awesome-twitter" d="M49.044,14.445c.035.486.035.971.035,1.457,0,14.81-11.272,31.875-31.875,31.875A31.659,31.659,0,0,1,0,42.748a23.176,23.176,0,0,0,2.705.139A22.436,22.436,0,0,0,16.614,38.1,11.223,11.223,0,0,1,6.139,30.331a14.128,14.128,0,0,0,2.116.173,11.849,11.849,0,0,0,2.948-.381,11.2,11.2,0,0,1-8.983-11v-.139a11.283,11.283,0,0,0,5.064,1.422A11.22,11.22,0,0,1,3.815,5.427a31.844,31.844,0,0,0,23.1,11.723,12.647,12.647,0,0,1-.277-2.567A11.214,11.214,0,0,1,46.026,6.919a22.057,22.057,0,0,0,7.11-2.705,11.173,11.173,0,0,1-4.925,6.174,22.459,22.459,0,0,0,6.451-1.734,24.082,24.082,0,0,1-5.619,5.792Z" transform="translate(9 2.62)" fill="#fffeed"/>
  </g>
</svg>
